<?xml version="1.0" standalone="no"?>
<!DOCTYPE svg PUBLIC "-//W3C//DTD SVG 20010904//EN"
 "http://www.w3.org/TR/2001/REC-SVG-20010904/DTD/svg10.dtd">
<svg version="1.0" xmlns="http://www.w3.org/2000/svg"
 width="357.000000pt" height="365.000000pt" viewBox="0 0 357.000000 365.000000"
 preserveAspectRatio="xMidYMid meet">
<metadata>
Created by potrace 1.16, written by Peter Selinger 2001-2019
</metadata>
<g transform="translate(0.000000,365.000000) scale(0.100000,-0.100000)"
fill="#FF0000" stroke="none">
<path d="M1610 3439 c-658 -76 -1190 -508 -1395 -1134 -135 -410 -102 -853 91
-1239 253 -507 731 -840 1299 -906 447 -51 918 98 1261 397 648 567 751 1536
236 2228 -342 460 -931 718 -1492 654z m292 -473 c292 -65 508 -261 596 -543
34 -108 56 -218 47 -233 -4 -6 -88 -10 -210 -10 -204 0 -205 0 -209 23 -44
224 -108 334 -231 391 -137 64 -335 62 -472 -4 -70 -34 -153 -118 -195 -196
-38 -70 -75 -204 -88 -324 -17 -140 -8 -549 14 -645 57 -249 154 -383 319
-436 96 -31 260 -31 357 0 158 50 238 146 279 336 l18 80 203 3 c112 1 207 -1
211 -5 12 -13 -18 -165 -51 -255 -100 -274 -310 -449 -616 -513 -109 -23 -343
-23 -446 -1 -167 36 -293 103 -414 221 -153 149 -244 331 -291 580 -25 131
-25 590 0 725 65 346 240 604 503 738 55 28 161 61 247 78 90 17 334 12 429
-10z m1157 -950 c47 -7 103 -49 131 -97 29 -53 33 -158 7 -206 -23 -44 -56
-77 -97 -99 -33 -18 -67 -19 -745 -19 -390 0 -727 4 -748 8 -43 9 -110 65
-134 111 -11 19 -17 56 -17 97 0 57 4 74 30 115 30 50 75 83 125 93 36 7 1399
4 1448 -3z"/>
</g>
</svg>
